<svg id="Layer_1" enable-background="new 0 0 512 512" height="512" viewBox="0 0 512 512" width="512" xmlns="http://www.w3.org/2000/svg"><g><g><g><g><path d="m280.221 7.5h179.129c23.968 0 43.398 19.426 43.398 43.389v107.721c0 23.963-19.43 43.389-43.398 43.389h-126.079l-18.284 30.895-18.284-30.895h-16.482c-23.968 0-43.398-19.426-43.398-43.389v-107.721c0-23.963 19.43-43.389 43.398-43.389z" fill="#fff6e0"/><g><path d="m459.35 7.5h-40c23.968 0 43.398 19.426 43.398 43.389v107.721c0 23.963-19.43 43.389-43.398 43.389h40c23.968 0 43.398-19.426 43.398-43.389v-107.721c0-23.963-19.43-43.389-43.398-43.389z" fill="#fff0cc"/></g></g><g><ellipse cx="204.58" cy="140.068" fill="#cc8b66" rx="71.371" ry="70.7"/><path d="m204.58 69.368c-6.946 0-13.652 1.001-20 2.834 29.678 8.569 51.371 35.7 51.371 67.866s-21.693 59.297-51.371 67.866c6.348 1.833 13.054 2.834 20 2.834 39.417 0 71.371-31.653 71.371-70.7s-31.954-70.7-71.371-70.7z" fill="#bf7950"/><g><path d="m298.336 387.082h-187.513v-83.445c0-39.241 31.811-71.053 71.053-71.053h45.407c39.241 0 71.053 31.811 71.053 71.053z" fill="#828cb3"/><path d="m204.58 307.364 44.993-77.198h-89.987z" fill="#fff9eb"/><g><path d="m165.114 149.713c-10.174 0-18.429 8.158-18.452 18.237l-.014 30.927c0 31.613 25.871 57.241 57.783 57.241h.296c31.913 0 57.783-25.627 57.783-57.24v-30.887c0-10.095-8.261-18.278-18.452-18.278z" fill="#ffcab9"/></g><path d="m244.059 149.713h-40c10.191 0 18.452 8.183 18.452 18.278v30.886c0 24.703-15.798 45.751-37.931 53.772 6.191 2.244 12.877 3.468 19.852 3.468h.296c31.913 0 57.783-25.627 57.783-57.24v-30.886c-.001-10.095-8.262-18.278-18.452-18.278z" fill="#fabba7"/></g></g><g><path d="m86.871 423h235.416v81.5h-235.416z" fill="#ffea00"/><path d="m282.288 423h40v81.5h-40z" fill="#ffd900"/><path d="m65.139 437.024h278.881c7.413 0 13.764-5.3 15.09-12.592l13.892-76.436h-336.844l13.892 76.436c1.325 7.292 7.676 12.592 15.089 12.592z" fill="#cc8b66"/><path d="m333.001 347.996-13.892 76.436c-1.325 7.292-7.677 12.592-15.09 12.592h40c7.413 0 13.764-5.3 15.09-12.592l13.892-76.436z" fill="#bf7950"/></g><g><path d="m275.95 318.695h80.064v29.301h-80.064z" fill="#ffea00"/><g><path d="m296.686 256.118h38.593v62.578h-38.593z" fill="#cc8b66"/></g></g></g></g><g><path d="m502.748 81.844c-4.142 0-7.5 3.357-7.5 7.5v69.267c0 19.789-16.104 35.889-35.898 35.889h-126.079c-2.651 0-5.104 1.399-6.455 3.681l-11.829 19.988-11.83-19.989c-1.35-2.28-3.804-3.68-6.455-3.68-8.687 0-18.258 1.031-26.693-1.469v-9.286c25.9-36.684 12.466-90.099-25.688-111.203v-21.653c.002-19.789 16.106-35.889 35.9-35.889h179.129c19.794 0 35.898 16.1 35.898 35.889 0 4.143 3.358 7.5 7.5 7.5s7.5-3.357 7.5-7.5c0-28.061-22.833-50.889-50.898-50.889h-179.129c-28.065 0-50.898 22.828-50.898 50.889v14.921c-70.848-22.967-131.863 55.929-90.168 117.946l-.007 15.122c0 12.277 3.464 23.767 9.473 33.559-27.461 12.758-45.299 40.235-45.299 71.201v36.859h-94.297c-9.697 0-9.697 15 0 15h20.873l12.772 70.276c1.975 10.865 11.424 18.751 22.469 18.751h14.608c-.004 19.732-.042 39.952-.375 59.851-.069 4.142 3.232 7.556 7.374 7.625 4.127.074 7.559-3.23 7.625-7.373.335-20.019.373-40.308.377-60.103h18.491c9.697 0 9.697-15 0-15-16.033-.025-32.066 0-48.099 0-3.791 0-7.033-2.705-7.711-6.433l-12.285-67.595h318.872l-12.285 67.595c-.677 3.728-3.92 6.433-7.71 6.433-63.61 0-127.22.008-190.83 0-9.697 0-9.697 15 0 15 53.862.002 107.724 0 161.586 0-.027 20.279-.023 39.978.012 59.99.007 4.142 3.372 7.494 7.513 7.486 4.142-.007 7.494-3.371 7.487-7.514-.035-20.002-.039-39.693-.011-59.963h14.243c11.045 0 20.495-7.886 22.469-18.751l12.772-70.276h20.873c9.697 0 9.697-15 0-15h-36.62v-21.801c0-4.143-3.358-7.5-7.5-7.5h-13.235v-16.289h57.355c9.697 0 9.697-15 0-15h-57.355v-23.789c0-4.143-3.358-7.5-7.5-7.5h-38.593c-3.849 0-7.02 2.899-7.45 6.633-7.539-9.658-17.325-17.507-28.703-22.807 4.44-7.233 7.491-15.392 8.783-24.112 7.543 1.647 15.444 1.168 23.111 1.168l16.106 27.215c2.856 4.823 10.054 4.823 12.909-.001l16.105-27.214h121.802c28.065 0 50.898-22.828 50.898-50.889v-69.266c0-4.143-3.358-7.5-7.5-7.5zm-298.168-4.976c40.805-.516 72.228 39.199 62.026 78.37-4.474-7.774-12.905-13.025-22.547-13.025h-78.945c-9.641 0-18.08 5.262-22.555 13.05-10.221-39.179 21.206-78.91 62.021-78.395zm0 215.601-18.3-31.397c11.857 3.408 24.742 3.408 36.599 0zm.148-43.852c-27.824.169-50.59-22.21-50.579-49.737l.014-30.913c.014-5.93 4.926-10.754 10.952-10.754h78.945c6.039 0 10.952 4.835 10.952 10.778v30.887c-.002 27.427-22.558 49.739-50.284 49.739zm-86.405 55.02c0-26.273 15.869-49.443 39.942-59.029 0 0 26.905 44.348 38.667 64.528v31.36h-78.609zm230.191 36.859h-65.064v-14.301h65.064zm-44.328-76.879h23.593v47.578h-23.593zm-15.006 25.537c.002.008.004.016.006.024v22.017h-13.236c-4.142 0-7.5 3.357-7.5 7.5v21.801h-56.519v-30.853c11.847-20.327 38.959-65.032 38.959-65.032 19.313 7.715 33.56 24.238 38.29 44.543z"/><path d="m453.558 59.344c0-4.143-3.358-7.5-7.5-7.5h-68.773v-9.721c0-4.143-3.358-7.5-7.5-7.5s-7.5 3.357-7.5 7.5v9.721h-68.772c-4.142 0-7.5 3.357-7.5 7.5s3.358 7.5 7.5 7.5h16.623l-12.324 32.299c-6.102 15.991 6.098 33.702 23.213 33.702s29.315-17.712 23.213-33.702l-12.324-32.299h30.372v87.408h-33.203c-4.142 0-7.5 3.357-7.5 7.5s3.358 7.5 7.5 7.5h81.407c4.142 0 7.5-3.357 7.5-7.5s-3.358-7.5-7.5-7.5h-33.204v-87.408h30.372l-12.324 32.299c-6.101 15.991 6.098 33.702 23.213 33.702s29.315-17.712 23.213-33.702l-12.324-32.299h16.623c4.141 0 7.499-3.358 7.499-7.5zm-124.425 54.24c-6.69 9.456-21.17 1.742-17.307-9.094l9.198-24.107 9.198 24.107c1.173 3.072.776 6.386-1.089 9.094zm97.522 0c-6.69 9.454-21.169 1.744-17.307-9.094 0 0 9.199-24.108 9.199-24.108l9.198 24.108c1.172 3.072.775 6.386-1.09 9.094z"/></g></g></svg>